<svg width="512" height="512" viewBox="0 0 512 512" fill="none" xmlns="http://www.w3.org/2000/svg">
<g clip-path="url(#clip0)">
<path d="M407.473 80.28C403.713 77.036 398.04 77.457 394.797 81.214C391.554 84.972 391.972 90.649 395.731 93.89C442.941 134.62 470.017 193.706 470.017 256C470.017 353.739 403.996 438.978 309.466 463.286C304.658 464.523 301.763 469.422 303 474.228C304.044 478.284 307.694 480.98 311.698 480.98C312.439 480.98 313.192 480.888 313.943 480.695C416.418 454.342 487.99 361.945 487.99 255.999C487.991 188.474 458.644 124.427 407.473 80.28Z" fill="white"/>
<path d="M378.187 58.76C348.94 40.605 316.103 29.294 282.001 25.47L295.907 16.557C300.086 13.879 301.302 8.31801 298.624 4.14001C295.946 -0.0389929 290.387 -1.25499 286.207 1.42301L248.753 25.43C246.372 26.957 244.848 29.515 244.64 32.336C244.432 35.157 245.564 37.911 247.696 39.771L281.224 69.014C282.927 70.5 285.032 71.229 287.128 71.229C289.634 71.229 292.128 70.186 293.905 68.149C297.168 64.408 296.78 58.731 293.039 55.468L279.005 43.226C310.817 46.643 341.457 57.114 368.709 74.032C370.184 74.949 371.822 75.385 373.44 75.385C376.445 75.385 379.383 73.877 381.084 71.137C383.702 66.919 382.405 61.378 378.187 58.76Z" fill="white"/>
<path d="M264.304 472.231L230.776 442.987C227.035 439.723 221.358 440.111 218.095 443.852C214.832 447.592 215.22 453.27 218.96 456.533L232.998 468.777C125.767 457.266 41.984 366.238 41.984 255.999C41.984 207.394 57.862 161.584 87.904 123.521C117.049 86.592 158.068 59.946 203.403 48.492C208.216 47.276 211.131 42.389 209.915 37.576C208.699 32.763 203.817 29.849 198.999 31.064C149.845 43.484 105.38 72.363 73.795 112.384C41.225 153.652 24.011 203.312 24.011 255.999C24.011 375.131 114.278 473.562 230.006 486.526L216.093 495.443C211.914 498.121 210.698 503.682 213.376 507.86C215.093 510.537 217.991 511.999 220.952 511.999C222.612 511.999 224.292 511.539 225.793 510.577L263.248 486.569C265.629 485.042 267.153 482.484 267.361 479.663C267.568 476.844 266.436 474.091 264.304 472.231Z" fill="white"/>
<path d="M372.792 231.302L333.428 191.938V130.064C333.428 125.1 329.404 121.076 324.44 121.076H286.704C281.74 121.076 277.716 125.1 277.716 130.064V136.227L258.003 116.514C254.493 113.004 248.802 113.004 245.293 116.514L130.506 231.304C126.996 234.814 126.996 240.505 130.506 244.014C134.016 247.524 139.707 247.524 143.216 244.014L161.493 225.737V288.237C161.493 293.201 165.517 297.225 170.481 297.225C175.445 297.225 179.469 293.201 179.469 288.237V207.76L251.648 135.581L323.827 207.76V358.383H179.471V318.195C179.471 313.23 175.448 309.206 170.483 309.206C165.519 309.206 161.495 313.23 161.495 318.194V367.37C161.495 372.334 165.519 376.358 170.483 376.358H332.817C337.781 376.358 341.805 372.334 341.805 367.37V225.735L360.082 244.012C361.836 245.766 364.137 246.645 366.437 246.645C368.737 246.645 371.037 245.768 372.792 244.012C376.302 240.502 376.302 234.811 372.792 231.302ZM315.454 173.962L295.693 154.201V139.051H315.454V173.962Z" fill="white"/>
<path d="M278.158 226.209H225.145C220.181 226.209 216.157 230.233 216.157 235.197V309.803C216.157 314.767 220.181 318.791 225.145 318.791H278.158C283.122 318.791 287.146 314.767 287.146 309.803V235.197C287.146 230.234 283.121 226.209 278.158 226.209ZM269.169 300.817H234.131V244.186H269.169V300.817Z" fill="white"/>
</g>
<defs>
<clipPath id="clip0">
<rect width="511.999" height="511.999" fill="white"/>
</clipPath>
</defs>
</svg>
