<svg width="512" height="512" viewBox="0 0 512 512" fill="none" xmlns="http://www.w3.org/2000/svg">
<path d="M502.76 84.942C497.657 84.942 493.52 89.079 493.52 94.182V493.519H419.636V472.712H463.857C468.96 472.712 473.097 468.575 473.097 463.472V300.092C473.097 294.989 468.96 290.852 463.857 290.852H424.373V270.43H463.857C468.96 270.43 473.097 266.293 473.097 261.19V47.758C473.097 42.655 468.96 38.518 463.857 38.518H275.451C270.348 38.518 266.211 42.655 266.211 47.758V181.606H245.788V47.758C245.788 42.655 241.651 38.518 236.548 38.518H48.143C43.04 38.518 38.903 42.655 38.903 47.758V221.602V261.189C38.903 266.292 43.04 270.429 48.143 270.429H81.555C86.658 270.429 90.795 266.292 90.795 261.189C90.795 256.086 86.658 251.949 81.555 251.949H57.383V230.842H96.593C129.282 230.842 155.876 204.248 155.876 171.56V56.998H227.308V190.846C227.308 195.949 231.445 200.086 236.548 200.086H275.451C280.554 200.086 284.691 195.949 284.691 190.846V56.998H454.616V80.77H430.215C425.112 80.77 420.975 84.907 420.975 90.01V216.907C420.975 222.01 425.112 226.147 430.215 226.147H454.616V251.949H415.132C410.029 251.949 405.892 256.086 405.892 261.189V300.091C405.892 305.194 410.029 309.331 415.132 309.331H454.616V454.231H410.394C405.291 454.231 401.154 458.368 401.154 463.471V502.759C401.154 507.862 405.291 511.999 410.394 511.999H502.757C507.86 511.999 511.997 507.862 511.997 502.759V94.182C512 89.079 507.863 84.942 502.76 84.942ZM137.397 171.56H137.396C137.396 194.058 119.092 212.362 96.593 212.362H57.383V56.998H64.125V62.971C64.125 68.074 68.262 72.211 73.365 72.211C78.468 72.211 82.605 68.074 82.605 62.971V56.998H88.149V81.451C88.149 86.554 92.286 90.691 97.389 90.691C102.492 90.691 106.629 86.554 106.629 81.451V56.998H112.173V62.971C112.173 68.074 116.31 72.211 121.413 72.211C126.516 72.211 130.653 68.074 130.653 62.971V56.998H137.396V171.56H137.397ZM454.617 207.668H439.456V99.25H454.617V207.668Z" fill="white"/>
<path d="M502.76 0.00100708H9.24C4.137 0.00100708 0 4.13801 0 9.24101V502.76C0 507.863 4.137 512 9.24 512H335.969C341.072 512 345.209 507.863 345.209 502.76V463.472C345.209 458.369 341.072 454.232 335.969 454.232H284.691V364.275C284.691 359.172 280.554 355.035 275.451 355.035H236.548C231.445 355.035 227.308 359.172 227.308 364.275V454.232H57.383V433.06H85.48C94.163 433.06 101.836 428.684 106.433 422.027C114.469 426.191 123.703 428.421 133.403 428.421C162.225 428.421 185.674 408.274 185.674 383.51C185.674 376.157 183.57 368.865 179.59 362.422C176.909 358.082 171.214 356.734 166.873 359.417C162.531 362.099 161.186 367.792 163.868 372.134C166.075 375.707 167.193 379.534 167.193 383.51C167.193 398.083 152.034 409.94 133.403 409.94C125.089 409.94 117.112 407.506 110.936 403.181V363.838C117.112 359.514 125.089 357.079 133.403 357.079C138.783 357.079 143.927 358.05 148.692 359.963C153.425 361.865 158.808 359.566 160.709 354.83C162.61 350.094 160.312 344.714 155.576 342.813C148.611 340.016 141.152 338.598 133.401 338.598C123.7 338.598 114.464 340.828 106.425 344.995C101.828 338.343 94.158 333.97 85.477 333.97H57.383V309.33H312.411C317.514 309.33 321.651 305.193 321.651 300.09V261.188C321.651 256.085 317.514 251.948 312.411 251.948H111.123C106.02 251.948 101.883 256.085 101.883 261.188C101.883 266.291 106.02 270.428 111.123 270.428H303.172V290.85H48.143C43.04 290.85 38.903 294.987 38.903 300.09V463.471C38.903 468.574 43.04 472.711 48.143 472.711H236.549C241.652 472.711 245.789 468.574 245.789 463.471V373.514H266.212V463.471C266.212 468.574 270.349 472.711 275.452 472.711H326.73V493.518H18.48V18.481H493.52V61.329C493.52 66.432 497.657 70.569 502.76 70.569C507.863 70.569 512 66.432 512 61.329V9.24101C512 4.13801 507.863 0.00100708 502.76 0.00100708ZM57.383 352.454H85.48V352.453C89.328 352.453 92.457 355.582 92.457 359.43V407.604C92.457 411.45 89.328 414.581 85.48 414.581H57.383V352.454Z" fill="white"/>
<path d="M386.24 80.77H318.025C312.922 80.77 308.785 84.907 308.785 90.01V216.907C308.785 222.01 312.922 226.147 318.025 226.147H386.24C391.343 226.147 395.48 222.01 395.48 216.907V186.723V120.194V90.01C395.48 84.907 391.343 80.77 386.24 80.77ZM377 177.483H359.375V129.434H377V177.483ZM377 110.954H350.135C345.032 110.954 340.895 115.091 340.895 120.194V186.723C340.895 191.826 345.032 195.963 350.135 195.963H377V207.667H327.265V99.25H377V110.954Z" fill="white"/>
<path d="M130.827 392.754C135.93 392.754 140.067 388.617 140.067 383.514C140.067 378.411 135.93 374.274 130.827 374.274C125.724 374.274 121.587 378.411 121.587 383.514C121.587 388.617 125.724 392.754 130.827 392.754Z" fill="white"/>
<path d="M97.391 188.018C102.494 188.018 106.631 183.881 106.631 178.778C106.631 173.675 102.494 169.538 97.391 169.538C92.2879 169.538 88.151 173.675 88.151 178.778C88.151 183.881 92.2879 188.018 97.391 188.018Z" fill="white"/>
</svg>
