<svg width="512" height="512" viewBox="0 0 512 512" fill="none" xmlns="http://www.w3.org/2000/svg">
<g clip-path="url(#clip0)">
<path d="M481.845 101.125H230.823C225.748 80.82 207.355 65.731 185.5 65.731H182.247L156.566 5.031C155.276 1.981 152.286 0 148.975 0C145.664 0 142.674 1.982 141.384 5.031L115.703 65.731H95.883C91.33 65.731 87.64 69.422 87.64 73.974V101.124H30.153C25.6 101.124 21.91 104.815 21.91 109.367V175.1C21.91 179.652 25.6 183.343 30.153 183.343H87.642V202.067C87.642 206.619 91.332 210.31 95.885 210.31H107.867V451.693H52.063C47.51 451.693 43.82 455.384 43.82 459.936V503.757C43.82 508.309 47.51 512 52.063 512H166.979C171.532 512 175.222 508.309 175.222 503.757C175.222 499.205 171.532 495.514 166.979 495.514H60.306V468.179H237.644V495.514H193.356C188.803 495.514 185.113 499.205 185.113 503.757C185.113 508.309 188.803 512 193.356 512H245.887C250.44 512 254.13 508.309 254.13 503.757V459.936C254.13 455.384 250.44 451.693 245.887 451.693H190.084V210.309H223.977C228.53 210.309 232.22 206.618 232.22 202.066V183.342H433.153V258.127H428.208C423.655 258.127 419.965 261.818 419.965 266.37C419.965 270.922 423.655 274.613 428.208 274.613H433.153V295.607C433.153 300.159 436.843 303.85 441.396 303.85C449.629 303.85 456.328 310.548 456.328 318.781C456.328 327.014 449.629 333.713 441.396 333.713C433.163 333.713 426.464 327.014 426.464 318.781C426.464 314.229 422.774 310.538 418.221 310.538C413.668 310.538 409.978 314.229 409.978 318.781C409.978 336.104 424.071 350.199 441.396 350.199C458.721 350.199 472.814 336.105 472.814 318.781C472.814 304.31 462.977 292.091 449.639 288.461V274.613H454.584C459.137 274.613 462.827 270.922 462.827 266.37C462.827 261.818 459.137 258.127 454.584 258.127H449.639V183.342H481.846C486.399 183.342 490.089 179.651 490.089 175.099V109.367C490.088 104.815 486.398 101.125 481.845 101.125ZM38.396 166.857V129.269L75.984 166.857H38.396ZM87.64 155.199L50.052 117.611H87.64V155.199ZM148.975 29.399L164.347 65.732H133.604L148.975 29.399ZM173.597 451.692H136.009L173.597 414.104V451.692ZM124.352 440.036V348.375L170.183 394.205L124.352 440.036ZM173.597 374.304L127.766 328.473L173.597 282.643V374.304ZM124.352 308.573V221.967L167.655 265.27L124.352 308.573ZM173.597 247.897L136.009 210.309H173.597V247.897ZM215.734 156.178H156.374V131.744C156.374 127.192 152.684 123.501 148.131 123.501C143.578 123.501 139.888 127.192 139.888 131.744V164.421C139.888 168.973 143.578 172.664 148.131 172.664H215.733V193.823H104.126V82.218H139.887V104.817C139.887 109.369 143.577 113.06 148.13 113.06C152.683 113.06 156.373 109.369 156.373 104.817V82.218H176.757C176.767 82.218 176.777 82.22 176.787 82.22C176.801 82.22 185.5 82.218 185.5 82.218C202.171 82.218 215.733 95.781 215.733 112.451V156.178H215.734ZM232.219 155.199V117.611H269.807L232.219 155.199ZM243.877 166.857L287.18 123.554L330.482 166.857H243.877ZM304.552 117.611H396.213L350.382 163.442L304.552 117.611ZM370.283 166.857L416.114 121.026L461.945 166.857H370.283ZM473.602 155.199L436.014 117.611H473.602V155.199Z" fill="white"/>
</g>
<defs>
<clipPath id="clip0">
<rect width="511.999" height="511.999" fill="white"/>
</clipPath>
</defs>
</svg>
