<svg width="512" height="512" viewBox="0 0 512 512" fill="none" xmlns="http://www.w3.org/2000/svg">
<path d="M500.973 457.407C496.078 457.407 492.111 461.375 492.111 466.269V494.276H463.151V335.282C463.151 330.388 459.184 326.42 454.289 326.42H280.963C276.068 326.42 272.101 330.388 272.101 335.282V494.276H243.141V253.724H492.111V435.857C492.11 440.751 496.078 444.719 500.972 444.719C505.867 444.719 509.834 440.751 509.834 435.857V244.862C509.834 239.968 505.867 236 500.972 236H243.141V202.287C243.141 197.393 239.173 193.425 234.279 193.425C229.385 193.425 225.417 197.393 225.417 202.287V494.276H19.889V121.52H225.416V171.874C225.416 176.768 229.384 180.736 234.278 180.736C239.172 180.736 243.14 176.768 243.14 171.874V112.658C243.14 107.764 239.172 103.796 234.278 103.796H66.602V74.9H81.462C86.356 74.9 90.324 70.932 90.324 66.038C90.324 61.144 86.356 57.176 81.462 57.176H66.602V44.488H72.338C77.232 44.488 81.2 40.52 81.2 35.626C81.2 30.732 77.232 26.764 72.338 26.764H66.602V8.862C66.602 3.968 62.634 0 57.74 0C52.846 0 48.878 3.968 48.878 8.862V26.763H43.142C38.248 26.763 34.28 30.731 34.28 35.625C34.28 40.519 38.248 44.487 43.142 44.487H48.878V57.175H34.018C29.124 57.175 25.156 61.143 25.156 66.037C25.156 70.931 29.124 74.899 34.018 74.899H48.878V103.795H11.027C6.13301 103.795 2.16501 107.763 2.16501 112.657V503.137C2.16501 508.031 6.13301 511.999 11.027 511.999H500.972C505.867 511.999 509.834 508.031 509.834 503.137V466.268C509.835 461.375 505.868 457.407 500.973 457.407ZM289.825 386.108H397.754C402.649 386.108 406.616 382.14 406.616 377.246C406.616 372.352 402.649 368.384 397.754 368.384H289.825V344.144H445.425V368.384H428.166C423.271 368.384 419.304 372.352 419.304 377.246C419.304 382.14 423.271 386.108 428.166 386.108H445.425V410.348H289.825V386.108V386.108ZM445.426 494.276H289.825V470.036H445.427V494.276H445.426ZM445.426 452.312H289.825V428.072H445.427V452.312H445.426Z" fill="white"/>
<path d="M346.765 284.437H280.962C276.067 284.437 272.1 288.405 272.1 293.299C272.1 298.193 276.067 302.161 280.962 302.161H346.765C351.66 302.161 355.627 298.193 355.627 293.299C355.627 288.405 351.661 284.437 346.765 284.437Z" fill="white"/>
<path d="M454.287 284.437H388.484C383.589 284.437 379.622 288.405 379.622 293.299C379.622 298.193 383.589 302.161 388.484 302.161H454.287C459.182 302.161 463.149 298.193 463.149 293.299C463.149 288.405 459.183 284.437 454.287 284.437Z" fill="white"/>
<path d="M169.181 329.142H76.124C71.23 329.142 67.262 333.11 67.262 338.004V451.134C67.262 456.028 71.23 459.996 76.124 459.996H169.182C174.076 459.996 178.044 456.028 178.044 451.134V338.004C178.043 333.11 174.075 329.142 169.181 329.142ZM113.79 442.272H84.986V346.866H113.79V442.272ZM160.319 442.272H131.514V346.866H160.319V442.272Z" fill="white"/>
<path d="M169.181 155.799H76.124C71.23 155.799 67.262 159.767 67.262 164.661V277.791C67.262 282.685 71.23 286.653 76.124 286.653H169.182C174.076 286.653 178.044 282.685 178.044 277.791V164.661C178.043 159.767 174.075 155.799 169.181 155.799ZM160.319 268.929H131.514V216.886C131.514 211.992 127.546 208.024 122.652 208.024C117.758 208.024 113.79 211.992 113.79 216.886V268.929H84.986V173.523H113.79V190.122C113.79 195.016 117.758 198.984 122.652 198.984C127.546 198.984 131.514 195.016 131.514 190.122V173.523H160.319V268.929V268.929Z" fill="white"/>
</svg>
