<svg width="512" height="512" viewBox="0 0 512 512" fill="none" xmlns="http://www.w3.org/2000/svg">
<g clip-path="url(#clip0)">
<path d="M503.401 228.884L460.148 189.473V58.79C460.148 50.475 453.407 43.733 445.091 43.733H340.976C332.661 43.733 325.919 50.474 325.919 58.79V67.164L273.683 19.567C263.6 10.378 248.395 10.379 238.316 19.566L8.598 228.885C0.522 236.245 -2.147 247.585 1.799 257.774C5.746 267.963 15.356 274.546 26.283 274.546H62.972V484.267C62.972 492.582 69.713 499.324 78.029 499.324H203.942C212.257 499.324 218.999 492.583 218.999 484.267V356.931H293V484.268C293 492.583 299.741 499.325 308.057 499.325H433.965C442.28 499.325 449.022 492.584 449.021 484.268V274.547H485.718C496.644 274.547 506.255 267.963 510.202 257.775C514.147 247.585 511.479 236.245 503.401 228.884ZM433.965 244.433C425.65 244.433 418.908 251.174 418.908 259.49V469.211H323.115V341.874C323.115 333.559 316.373 326.817 308.058 326.817H203.942C195.627 326.817 188.885 333.558 188.885 341.874V469.211H93.085V259.49C93.085 251.175 86.344 244.433 78.028 244.433H36.245L256.001 44.193L330.837 112.384C335.245 116.4 341.608 117.435 347.061 115.028C352.515 112.618 356.034 107.216 356.034 101.254V73.847H430.036V196.123C430.036 200.36 431.82 204.399 434.952 207.253L475.755 244.433H433.965Z" fill="#FEA700"/>
</g>
<defs>
<clipPath id="clip0">
<rect width="512" height="512" fill="white"/>
</clipPath>
</defs>
</svg>
