<svg width="64" height="78" viewBox="0 0 64 78" fill="none" xmlns="http://www.w3.org/2000/svg">
<path d="M8.22705 42.7707L17.9011 37.2206C17.9011 37.2206 20.2719 35.9639 22.9002 35.9639C25.5309 35.9639 37.7367 35.9639 37.7367 35.9639C37.7367 35.9639 41.632 36.286 41.632 39.8985C41.632 42.1903 40.204 44.0274 37.8011 44.0274C35.3981 44.0274 26.1471 44.0274 26.1471 44.0274" stroke="#FEA700" stroke-width="2" stroke-miterlimit="22.9256" stroke-linecap="round" stroke-linejoin="round"/>
<path d="M40.21 43.2167L53.6437 35.5781C56.7711 33.8004 58.9119 34.783 59.9697 36.387C61.2275 38.2995 60.8734 41.1282 58.3187 42.6089C55.6949 44.1306 41.6311 52.3519 41.6311 52.3519C41.6311 52.3519 39.3592 53.7068 34.36 53.7068C29.3609 53.7068 21.5357 53.7068 21.5357 53.7068L16.7964 57.0611" stroke="#FEA700" stroke-width="2" stroke-miterlimit="22.9256" stroke-linecap="round" stroke-linejoin="round"/>
<path d="M3 42.8393L6.762 40.7463L18.1975 58.7105L15.3415 61" stroke="#FEA700" stroke-width="2" stroke-miterlimit="22.9256" stroke-linecap="round" stroke-linejoin="round"/>
<path d="M13.9639 39.2386V27.6128" stroke="#FEA700" stroke-width="2" stroke-miterlimit="22.9256" stroke-linecap="round" stroke-linejoin="round"/>
<path d="M52.2236 36.387V27.6128" stroke="#FEA700" stroke-width="2" stroke-miterlimit="22.9256" stroke-linecap="round" stroke-linejoin="round"/>
<path fill-rule="evenodd" clip-rule="evenodd" d="M8.22705 24.4846H13.9643V21.3885L33.0043 8.09702L52.0442 21.3885V24.4846H57.7815V18.1622L33.0043 1L8.22705 18.1622V24.4846Z" stroke="#FEA700" stroke-width="2" stroke-miterlimit="22.9256" stroke-linecap="round" stroke-linejoin="round"/>
<path d="M42.6782 3.90416V1H52.2212V10.6767" stroke="#FEA700" stroke-width="2" stroke-miterlimit="22.9256" stroke-linecap="round" stroke-linejoin="round"/>
</svg>
