<svg width="64" height="78" viewBox="0 0 64 78" fill="none" xmlns="http://www.w3.org/2000/svg">
<path d="M22.0645 55.2928H6.96331C5.33418 55.2928 4 53.9808 4 52.3788V8.74264C4 7.1406 5.33418 5.82861 6.96331 5.82861H11.4597M41.3809 5.83199H45.8774C47.5065 5.83199 48.8407 7.14397 48.8407 8.74601V29.5051L41.3809 5.83199Z" stroke="#FEA700" stroke-width="2" stroke-miterlimit="22.9256"/>
<path fill-rule="evenodd" clip-rule="evenodd" d="M13.6409 9.31591C13.6409 9.31591 12.1009 9.25857 11.5213 8.34457C10.9416 7.43056 11.0274 3.97691 14.8036 2.40522C18.5797 0.83354 26.4202 1.00555 26.4202 1.00555C26.4202 1.00555 34.2606 0.83354 38.0367 2.40522C41.8129 3.97691 41.8987 7.43056 41.319 8.34457C40.7394 9.25857 39.1994 9.31591 39.1994 9.31591C30.6799 9.31591 22.1638 9.31591 13.6443 9.31591H13.6409Z" stroke="#FEA700" stroke-width="2" stroke-miterlimit="22.9256"/>
<path d="M19.855 17.3967H39.5452" stroke="#FEA700" stroke-width="2" stroke-miterlimit="22.9256"/>
<path d="M11.2568 24.5913H39.5455" stroke="#FEA700" stroke-width="2" stroke-miterlimit="22.9256"/>
<path d="M11.2568 31.7881H25.4012" stroke="#FEA700" stroke-width="2" stroke-miterlimit="22.9256"/>
<path d="M11.2568 38.9858H21.5976" stroke="#FEA700" stroke-width="2" stroke-miterlimit="22.9256"/>
<path d="M11.2568 46.1794H21.5976" stroke="#FEA700" stroke-width="2" stroke-miterlimit="22.9256"/>
<path d="M32.5464 47.9809L38.9086 53.6909L48.0283 43.6672" stroke="#FEA700" stroke-width="2" stroke-miterlimit="22.9256"/>
<path d="M39.7481 61.7718C47.6715 61.7718 54.0947 55.4554 54.0947 47.6637C54.0947 39.8721 47.6715 33.5557 39.7481 33.5557C31.8246 33.5557 25.4014 39.8721 25.4014 47.6637C25.4014 55.4554 31.8246 61.7718 39.7481 61.7718Z" stroke="#FEA700" stroke-width="2" stroke-miterlimit="22.9256"/>
<path d="M51.9449 55.1375L58.8284 61.9065C59.7784 62.8407 59.7784 64.3652 58.8284 65.2994C57.8783 66.2337 56.3281 66.2337 55.378 65.2994L48.6694 58.7024" stroke="#FEA700" stroke-width="2" stroke-miterlimit="22.9256"/>
</svg>
