<svg width="64" height="78" viewBox="0 0 64 78" fill="none" xmlns="http://www.w3.org/2000/svg">
<path d="M16.0953 26.4231H7.33285C6.05051 26.4231 5 25.3884 5 24.123V3.30015C5 2.03468 6.04939 1 7.33285 1H57.1975C58.481 1 59.5303 2.03468 59.5303 3.30015V24.123C59.5303 25.3873 58.481 26.4231 57.1975 26.4231H52.7849L52.777 34.9932L41.6268 26.4231H37.4035" stroke="#FEA700" stroke-width="2" stroke-miterlimit="22.9256" stroke-linecap="round" stroke-linejoin="round"/>
<path d="M14.1411 10.0757H50.5787" stroke="#FEA700" stroke-width="2" stroke-miterlimit="22.9256" stroke-linecap="round" stroke-linejoin="round"/>
<path d="M37.6558 17.4102H50.5789" stroke="#FEA700" stroke-width="2" stroke-miterlimit="22.9256" stroke-linecap="round" stroke-linejoin="round"/>
<path d="M14.1411 17.4102H18.1125" stroke="#FEA700" stroke-width="2" stroke-miterlimit="22.9256" stroke-linecap="round" stroke-linejoin="round"/>
<path d="M12.4712 40.5056C12.4712 40.5056 18.9647 40.6061 21.2964 34.9932C23.6293 29.3792 24.1332 24.9666 24.0067 22.7912C23.8801 20.6158 24.4479 19.2488 26.717 19.2488C28.986 19.2488 31.0668 21.9211 31.0668 26.8317C31.0668 31.7423 31.0668 35.5331 31.0668 35.5331H34.6283H41.2629C42.6494 35.5331 43.785 36.6518 43.785 38.0199C43.785 39.387 42.6505 40.5067 41.2629 40.5067H40.3019C41.6884 40.5067 42.8241 41.6253 42.8241 42.9935C42.8241 44.3605 41.6896 45.4802 40.3019 45.4802H39.0566C40.4431 45.4802 41.5787 46.5988 41.5787 47.967C41.5787 49.3341 40.4442 50.4538 39.0566 50.4538H36.8816C38.2681 50.4538 39.4037 51.5724 39.4037 52.9405C39.4037 54.3076 38.2692 55.4273 36.8816 55.4273H21.3591" stroke="#FEA700" stroke-width="2" stroke-miterlimit="22.9256" stroke-linecap="round" stroke-linejoin="round"/>
<path fill-rule="evenodd" clip-rule="evenodd" d="M10.7833 57.0903H6.68874C5.7603 57.0903 5.00098 56.3417 5.00098 55.4251V39.0248C5.00098 38.1094 5.7603 37.3596 6.68874 37.3596H10.7833C11.7117 37.3596 12.471 38.1094 12.471 39.0248V55.4251C12.471 56.3406 11.7106 57.0903 10.7833 57.0903Z" stroke="#FEA700" stroke-width="2" stroke-miterlimit="22.9256" stroke-linecap="round" stroke-linejoin="round"/>
</svg>
