<svg width="67" height="57" viewBox="0 0 67 57" fill="none" xmlns="http://www.w3.org/2000/svg">
<g clip-path="url(#clip0)">
<path d="M65.9111 18.267L16.8087 0.0754635C16.1807 -0.15662 15.4829 0.164531 15.2513 0.793089C15.2508 0.793598 15.2508 0.794107 15.2503 0.794616L9.81468 15.5904C9.58362 16.219 9.90578 16.9163 10.5343 17.1473H10.5354L16.227 19.2371L14.9729 22.6537C14.7424 23.2823 15.0645 23.9785 15.6931 24.2096L27.0784 28.3896L26.2417 30.6672C25.4813 32.7071 26.1908 35.0035 27.9701 36.2581V42.4469H11.652C10.8621 40.6412 9.24567 39.3301 7.31521 38.9301V36.3833C7.31521 35.7135 6.77266 35.1704 6.10237 35.1704H1.21284C0.543055 35.1704 0 35.7135 0 36.3833V55.7872C0 56.4575 0.543055 57 1.21284 57H6.10237C6.77266 57 7.31521 56.4575 7.31521 55.7872V53.2409C9.24567 52.8403 10.8621 51.5298 11.652 49.7235H27.9701V50.9363C27.9701 52.9457 29.5988 54.5748 31.6081 54.5748C33.6175 54.5748 35.2466 52.9457 35.2466 50.9363V37.5014C36.349 36.9548 37.2005 36.0066 37.625 34.8513L38.4617 32.5737L48.708 36.3334C48.8418 36.3828 48.9828 36.4077 49.1253 36.4077C49.6338 36.4077 50.0888 36.0906 50.2644 35.6132L50.7189 34.3749C54.6653 35.1175 58.4662 32.5203 59.2082 28.5744C59.4825 27.1162 59.3044 25.6092 58.6977 24.2554L66.0496 20.4805C66.6456 20.1751 66.8812 19.4442 66.5758 18.8483C66.4374 18.5775 66.2023 18.3688 65.9173 18.2635L65.9111 18.267ZM30.3953 37.363L31.3994 37.7269C31.8565 37.8908 32.3359 37.9849 32.821 38.0058V42.4469H30.3953V37.363ZM4.89004 54.5748H2.42568V37.5961H4.89004V54.5748ZM9.74088 47.2983C9.73885 48.8394 8.76776 50.2131 7.31521 50.7292V41.4418C8.76776 41.9573 9.73885 43.331 9.74088 44.8726V47.2983ZM12.2042 44.8726H32.821V47.2983H12.2042V44.8726ZM31.6081 52.1492C30.9383 52.1492 30.3953 51.6061 30.3953 50.9363V49.7235H32.821V50.9363C32.821 51.6061 32.2779 52.1492 31.6081 52.1492ZM36.1851 31.7385L35.3484 34.0161C34.8863 35.2722 33.4933 35.9166 32.2362 35.4554L29.955 34.6197C28.6979 34.1581 28.0526 32.7646 28.5142 31.507C28.5142 31.507 28.5142 31.507 28.5142 31.5065L29.3514 29.2304L35.4986 31.4871L36.1851 31.7385ZM48.4062 33.6425L17.6673 22.355L18.5046 20.0774L36.719 26.7661C37.1501 26.9228 37.6336 26.8246 37.969 26.5111L41.3724 23.3072L50.9143 26.8119L48.4062 33.6425ZM56.6059 28.9027C55.8374 30.9746 53.7705 32.2694 51.5714 32.0561L53.4453 26.9513L56.5062 25.3751C56.9851 26.4958 57.0207 27.757 56.6059 28.9027ZM52.5124 24.7094C52.4483 24.715 52.3847 24.7262 52.3221 24.743L41.5093 20.7726C41.0782 20.6143 40.5947 20.7126 40.2598 21.0271L36.8524 24.2315L12.5096 15.2922L17.1075 2.77292L62.4839 19.5842L52.5124 24.7094Z" fill="#FEA700"/>
<path d="M22.4531 16.3588L23.2888 14.0818L25.5659 14.918L24.7297 17.1951L22.4531 16.3588Z" fill="#FEA700"/>
<path d="M27.0068 18.031L27.8425 15.7539L30.1196 16.5901L29.2834 18.8667L27.0068 18.031Z" fill="#FEA700"/>
<path d="M31.5605 19.7038L32.3968 17.4268L34.6733 18.263L33.8371 20.54L31.5605 19.7038Z" fill="#FEA700"/>
</g>
<defs>
<clipPath id="clip0">
<rect width="67" height="57" fill="white"/>
</clipPath>
</defs>
</svg>
